<svg xmlns="http://www.w3.org/2000/svg" width="144" height="144" viewBox="0 0 144 144" fill="none">
  <rect width="144" height="144" rx="34" fill="#1976D2"/>
  <path d="M72 38C63.1634 38 56 45.1634 56 54V63H49C47.8954 63 47 63.8954 47 65V97C47 98.1046 47.8954 99 49 99H95C96.1046 99 97 98.1046 97 97V65C97 63.8954 96.1046 63 95 63H88V54C88 45.1634 80.8366 38 72 38ZM84 63H60V54C60 47.3726 65.3726 42 72 42C78.6274 42 84 47.3726 84 54V63Z" fill="white"/>
  <circle cx="72" cy="81" r="8" fill="white"/>
</svg>
