<svg xmlns="http://www.w3.org/2000/svg" width="96" height="96" viewBox="0 0 96 96" fill="none">
  <rect width="96" height="96" rx="22" fill="#1976D2"/>
  <path d="M48 26C42.4772 26 38 30.4772 38 36V42H34C32.8954 42 32 42.8954 32 44V64C32 65.1046 32.8954 66 34 66H62C63.1046 66 64 65.1046 64 64V44C64 42.8954 63.1046 42 62 42H58V36C58 30.4772 53.5228 26 48 26ZM54 42H42V36C42 32.6863 44.6863 30 48 30C51.3137 30 54 32.6863 54 36V42Z" fill="white"/>
  <circle cx="48" cy="55" r="5.5" fill="white"/>
</svg>
