<svg xmlns="http://www.w3.org/2000/svg" width="192" height="192" viewBox="0 0 192 192" fill="none">
  <rect width="192" height="192" rx="48" fill="#1976D2"/>
  <path d="M96 48C83.2696 48 73 58.2696 73 71V84H63C61.3431 84 60 85.3431 60 87V131C60 132.657 61.3431 134 63 134H129C130.657 134 132 132.657 132 131V87C132 85.3431 130.657 84 129 84H119V71C119 58.2696 108.73 48 96 48ZM115 84H77V71C77 60.5066 85.5066 52 96 52C106.493 52 115 60.5066 115 71V84Z" fill="white"/>
  <circle cx="96" cy="109" r="11" fill="white"/>
</svg>
