<svg xmlns="http://www.w3.org/2000/svg" width="72" height="72" viewBox="0 0 72 72" fill="none">
  <rect width="72" height="72" rx="16" fill="#1976D2"/>
  <path d="M36 20C31.5817 20 28 23.5817 28 28V32H26C24.8954 32 24 32.8954 24 34V48C24 49.1046 24.8954 50 26 50H46C47.1046 50 48 49.1046 48 48V34C48 32.8954 47.1046 32 46 32H44V28C44 23.5817 40.4183 20 36 20ZM40 32H32V28C32 25.7909 33.7909 24 36 24C38.2091 24 40 25.7909 40 28V32Z" fill="white"/>
  <circle cx="36" cy="41" r="4" fill="white"/>
</svg>
