<svg xmlns="http://www.w3.org/2000/svg" width="384" height="384" viewBox="0 0 384 384" fill="none">
  <rect width="384" height="384" rx="96" fill="#1976D2"/>
  <path d="M192 96C166.539 96 146 116.539 146 142V168H126C122.686 168 120 170.686 120 174V262C120 265.314 122.686 268 126 268H258C261.314 268 264 265.314 264 262V174C264 170.686 261.314 168 258 168H238V142C238 116.539 217.461 96 192 96ZM230 168H154V142C154 121.013 171.013 104 192 104C212.987 104 230 121.013 230 142V168Z" fill="white"/>
  <circle cx="192" cy="218" r="22" fill="white"/>
</svg>
