<svg xmlns="http://www.w3.org/2000/svg" width="152" height="152" viewBox="0 0 152 152" fill="none">
  <rect width="152" height="152" rx="36" fill="#1976D2"/>
  <path d="M76 40C66.6112 40 59 47.6112 59 57V67H51C49.8954 67 49 67.8954 49 69V103C49 104.105 49.8954 105 51 105H101C102.105 105 103 104.105 103 103V69C103 67.8954 102.105 67 101 67H93V57C93 47.6112 85.3888 40 76 40ZM89 67H63V57C63 49.8203 68.8203 44 76 44C83.1797 44 89 49.8203 89 57V67Z" fill="white"/>
  <circle cx="76" cy="86" r="8.5" fill="white"/>
</svg>
