<svg xmlns="http://www.w3.org/2000/svg" width="512" height="512" viewBox="0 0 512 512" fill="none">
  <rect width="512" height="512" rx="128" fill="#1976D2"/>
  <path d="M256 128C222.385 128 195 155.385 195 189V224H168C164.686 224 162 226.686 162 230V350C162 353.314 164.686 356 168 356H344C347.314 356 350 353.314 350 350V230C350 226.686 347.314 224 344 224H317V189C317 155.385 289.615 128 256 128ZM309 224H203V189C203 159.818 226.818 136 256 136C285.182 136 309 159.818 309 189V224Z" fill="white"/>
  <circle cx="256" cy="290" r="29.5" fill="white"/>
</svg>
