<svg xmlns="http://www.w3.org/2000/svg" width="128" height="128" viewBox="0 0 128 128" fill="none">
  <rect width="128" height="128" rx="30" fill="#1976D2"/>
  <path d="M64 34C56.268 34 50 40.268 50 48V56H44C42.8954 56 42 56.8954 42 58V86C42 87.1046 42.8954 88 44 88H84C85.1046 88 86 87.1046 86 86V58C86 56.8954 85.1046 56 84 56H78V48C78 40.268 71.732 34 64 34ZM74 56H54V48C54 42.4772 58.4772 38 64 38C69.5228 38 74 42.4772 74 48V56Z" fill="white"/>
  <circle cx="64" cy="72" r="7" fill="white"/>
</svg>
